<?xml version="1.0" encoding="UTF-8" standalone="no"?>
<!DOCTYPE svg PUBLIC "-//W3C//DTD SVG 1.1//EN" "http://www.w3.org/Graphics/SVG/1.1/DTD/svg11.dtd">
<svg width="100%" height="100%" viewBox="0 0 512 512" version="1.1" xmlns="http://www.w3.org/2000/svg" xmlns:xlink="http://www.w3.org/1999/xlink" xml:space="preserve" xmlns:serif="http://www.serif.com/" style="fill-rule:evenodd;clip-rule:evenodd;stroke-linejoin:round;stroke-miterlimit:2;">
    <g>
        <g>
            <g>
                <path d="M281.123,205.001L230.878,205.001C225.329,205.001 220.829,209.5 220.829,215.05L220.829,272.33C220.829,277.88 225.329,282.379 230.878,282.379L281.123,282.379C286.672,282.379 291.172,277.88 291.172,272.33L291.172,215.05C291.172,209.5 286.672,205.001 281.123,205.001ZM271.074,262.281L240.927,262.281L240.927,225.099L271.074,225.099L271.074,262.281Z" style="fill:rgb(97,184,167);fill-rule:nonzero;"/>
                <path d="M452.291,491.902L411.76,491.902L411.76,344.241L425.326,344.241C430.098,344.241 434.213,340.885 435.171,336.209C436.129,331.533 433.666,326.829 429.277,324.952L331.367,283.083L331.367,184.904L338.904,184.904C342.879,184.904 346.481,182.561 348.092,178.927C349.703,175.293 349.02,171.051 346.35,168.105L266.049,79.53L266.049,49.743L284.137,49.743C289.686,49.743 294.186,45.244 294.186,39.694C294.186,34.144 289.686,29.645 284.137,29.645L266.049,29.645L266.049,10.049C266.049,4.499 261.549,0 256,0C250.451,0 245.951,4.499 245.951,10.049L245.951,29.645L227.863,29.645C222.314,29.645 217.814,34.144 217.814,39.694C217.814,45.244 222.314,49.743 227.863,49.743L245.951,49.743L245.951,79.53L165.651,168.103C162.981,171.048 162.298,175.29 163.908,178.925C165.519,182.56 169.12,184.902 173.096,184.902L180.633,184.902L180.633,283.082L82.723,324.951C78.335,326.828 75.871,331.532 76.829,336.208C77.787,340.884 81.902,344.24 86.674,344.24L100.24,344.24L100.24,491.9L59.709,491.9C54.16,491.9 49.66,496.399 49.66,501.949C49.66,507.499 54.159,512 59.709,512L452.292,512C457.841,512 462.341,507.501 462.341,501.951C462.341,496.401 457.841,491.902 452.291,491.902ZM256,98.369L316.231,164.804L195.769,164.804L256,98.369ZM288.659,491.902L223.34,491.902L223.34,393.924C223.34,375.916 237.991,361.265 255.999,361.265C274.008,361.265 288.658,375.917 288.658,393.924L288.658,491.902L288.659,491.902ZM391.662,491.902L308.757,491.902L308.757,393.924C308.757,364.833 285.089,341.166 255.999,341.166C226.909,341.166 203.241,364.833 203.241,393.924L203.241,491.902L120.336,491.902L120.336,330.726L194.631,298.955C198.33,297.373 200.729,293.739 200.729,289.716L200.729,184.903L311.269,184.903L311.269,289.715C311.269,293.738 313.669,297.373 317.367,298.954L391.662,330.725L391.662,491.902Z" style="fill:rgb(97,184,167);fill-rule:nonzero;"/>
                <path d="M348.954,420.386C354.503,420.386 359.003,415.887 359.003,410.337L359.003,378.18C359.003,372.631 354.503,368.131 348.954,368.131C343.405,368.131 338.905,372.63 338.905,378.18L338.905,410.337C338.905,415.887 343.405,420.386 348.954,420.386Z" style="fill:rgb(97,184,167);fill-rule:nonzero;"/>
                <path d="M348.954,467.616C354.503,467.616 359.003,463.117 359.003,457.567L359.003,453.547C359.003,447.998 354.503,443.498 348.954,443.498C343.405,443.498 338.905,447.997 338.905,453.547L338.905,457.567C338.905,463.117 343.405,467.616 348.954,467.616Z" style="fill:rgb(97,184,167);fill-rule:nonzero;"/>
                <path d="M163.046,368.13C157.497,368.13 152.997,372.629 152.997,378.179L152.997,410.336C152.997,415.886 157.497,420.385 163.046,420.385C168.595,420.385 173.095,415.886 173.095,410.336L173.095,378.18C173.095,372.63 168.595,368.13 163.046,368.13Z" style="fill:rgb(97,184,167);fill-rule:nonzero;"/>
            </g>
        </g>
    </g>
</svg>
