<?xml version="1.0" encoding="UTF-8"?>
<svg xmlns="http://www.w3.org/2000/svg" width="653" height="328" viewBox="0 0 653 328" fill="none">
  <path d="M8.59216 8.59717V173.575H260.47H644.408V8.59717H8.59216Z" fill="white"/>
  <path d="M0 0V182.172H260.47V328H653V0H0ZM644.408 319.403H269.062V182.172H644.408V319.403ZM260.47 173.575H8.5921V8.59708H644.408V173.575H260.47Z" fill="#1D1D1B"/>
  <path d="M644.408 182.172H269.062V319.403H644.408V182.172Z" fill="white"/>
  <path d="M103.793 61.4263L102.933 68.3899H86.5439V120.617H78.3814V68.3899H61.5409V61.4263H103.771H103.793Z" fill="#1D1D1B"/>
  <path d="M163.465 120.617V92.8701H138.569V120.617H130.407V61.4263H138.569V86.1644H163.465V61.4263H171.627V120.617H163.465Z" fill="#1D1D1B"/>
  <path d="M237.98 61.4263L237.035 67.9601H214.115V87.282H234.027V93.8158H214.115V114.083H238.667V120.617H205.953V61.4263H237.98Z" fill="#1D1D1B"/>
  <path d="M365.315 120.617H351.481L350.45 97.3405C350.171 91.7953 350.021 86.8305 350.021 82.489C350.021 79.1791 350.107 76.0197 350.279 73.0322L341.106 114.341H327.789L317.994 73.0322C318.337 78.0185 318.509 82.7039 318.509 87.1099C318.509 90.4413 318.423 93.9016 318.251 97.5124L317.22 120.617H303.495L307.962 61.0823H325.727L334.662 101.446L342.997 61.0823H360.847L365.315 120.617Z" fill="#1D1D1B"/>
  <path d="M425.782 120.617L422.689 107.807H405.354L402.347 120.617H387.762L405.698 61.0823H422.796L440.732 120.617H425.803H425.782ZM407.76 97.5984H420.283L414.011 71.3128L407.738 97.5984H407.76Z" fill="#1D1D1B"/>
  <path d="M481.845 97.8563H476.346V120.617H462.277V61.0823H481.759C489.879 61.0823 496.001 62.5653 500.082 65.5528C504.163 68.5402 506.225 73.0752 506.225 79.2006C506.225 83.0478 505.302 86.2287 503.476 88.7864C501.65 91.344 498.75 93.4933 494.798 95.2772L509.899 120.617H494.003L481.802 97.8563H481.845ZM476.368 88.1416H482.296C485.433 88.1416 487.795 87.4323 489.385 85.9923C490.953 84.5523 491.748 82.2956 491.748 79.2006C491.748 76.3421 490.91 74.2573 489.213 72.9247C487.516 71.6137 484.939 70.9474 481.437 70.9474H476.368V88.1201V88.1416Z" fill="#1D1D1B"/>
  <path d="M592.748 117.2C577.067 118.038 567.788 107.399 562.697 98.3292C560.055 93.6008 559.518 92.2468 559.496 92.1608L579.688 61.4263H564.845L545.964 89.1733C546.114 90.0975 547.725 97.8994 551.484 104.627C560.764 121.154 574.726 130.138 591.051 130.138C591.845 130.138 592.64 130.138 593.456 130.074L592.769 117.2H592.748Z" fill="#1D1D1B"/>
  <path d="M545.513 61.4263H531.443V120.961H545.513V61.4263Z" fill="#1D1D1B"/>
  <path d="M318.681 237.774C321.538 237.774 323.858 238.612 325.641 240.267C327.424 241.922 328.326 244.05 328.326 246.672C328.326 249.294 327.424 251.443 325.619 253.076C323.815 254.71 321.431 255.527 318.466 255.527H312.774V268.336H306.867V237.795H318.66L318.681 237.774ZM317.221 250.906C318.789 250.906 320.013 250.54 320.894 249.831C321.774 249.1 322.225 248.047 322.225 246.629C322.225 243.813 320.421 242.416 316.812 242.416H312.796V250.927H317.242L317.221 250.906Z" fill="#1D1D1B"/>
  <path d="M356.981 237.774C359.859 237.774 362.2 238.569 364.005 240.159C365.809 241.75 366.711 243.813 366.711 246.371C366.711 248.112 366.26 249.616 365.358 250.906C364.456 252.195 363.124 253.205 361.363 253.958C362.329 254.474 363.21 255.204 363.962 256.107C364.713 257.01 365.659 258.536 366.776 260.685C368.644 264.382 370.019 266.939 370.921 268.336H364.348C363.897 267.67 363.274 266.595 362.522 265.112C360.826 261.867 359.601 259.675 358.806 258.536C358.012 257.397 357.26 256.601 356.529 256.128C355.799 255.656 354.961 255.419 354.016 255.419H351.868V268.315H345.961V237.774H356.959H356.981ZM355.649 250.82C357.195 250.82 358.398 250.433 359.279 249.659C360.16 248.885 360.611 247.832 360.611 246.478C360.611 245.124 360.181 244.028 359.3 243.34C358.42 242.653 357.174 242.309 355.563 242.309H351.89V250.82H355.649Z" fill="#1D1D1B"/>
  <path d="M402.111 237.387C405.268 237.387 408.125 238.032 410.638 239.343C413.173 240.654 415.171 242.523 416.674 244.974C418.178 247.424 418.93 250.132 418.93 253.055C418.93 255.978 418.199 258.557 416.739 261.007C415.278 263.457 413.259 265.349 410.703 266.703C408.146 268.057 405.268 268.723 402.068 268.723C398.867 268.723 396.032 268.035 393.454 266.66C390.876 265.284 388.857 263.414 387.418 261.007C385.979 258.6 385.249 255.956 385.249 253.055C385.249 250.153 385.979 247.617 387.418 245.167C388.857 242.695 390.855 240.783 393.39 239.429C395.924 238.074 398.846 237.387 402.132 237.387H402.111ZM391.327 253.076C391.327 255.097 391.779 256.924 392.702 258.536C393.626 260.147 394.893 261.416 396.547 262.297C398.18 263.178 400.048 263.629 402.111 263.629C405.247 263.629 407.824 262.641 409.843 260.685C411.863 258.707 412.872 256.171 412.872 253.076C412.872 251.056 412.421 249.229 411.497 247.596C410.595 245.962 409.306 244.716 407.652 243.835C405.998 242.953 404.13 242.502 402.068 242.502C400.005 242.502 398.137 242.953 396.483 243.856C394.829 244.759 393.561 246.005 392.659 247.617C391.779 249.229 391.327 251.056 391.327 253.098V253.076Z" fill="#1D1D1B"/>
  <path d="M453.47 237.387C457.229 237.387 460.966 238.225 464.661 239.901V245.296C460.966 243.405 457.315 242.48 453.728 242.48C451.494 242.48 449.517 242.932 447.778 243.813C446.038 244.694 444.706 245.984 443.739 247.66C442.794 249.337 442.3 251.185 442.3 253.248C442.3 256.365 443.331 258.879 445.415 260.771C447.498 262.684 450.226 263.629 453.62 263.629C454.544 263.629 455.446 263.543 456.305 263.393C457.164 263.242 458.174 262.92 459.355 262.469V257.396H454.308V252.775H465.262V265.37C463.759 266.423 461.955 267.24 459.849 267.82C457.744 268.401 455.553 268.702 453.277 268.702C450.054 268.702 447.133 268.035 444.513 266.703C441.892 265.37 439.851 263.522 438.391 261.136C436.93 258.75 436.2 256.085 436.2 253.141C436.2 250.196 436.93 247.445 438.412 245.038C439.894 242.631 441.956 240.74 444.598 239.407C447.241 238.074 450.183 237.387 453.427 237.387H453.47Z" fill="#1D1D1B"/>
  <path d="M495.528 237.774C498.407 237.774 500.748 238.569 502.552 240.159C504.357 241.75 505.259 243.813 505.259 246.371C505.259 248.112 504.808 249.616 503.905 250.906C503.003 252.195 501.672 253.205 499.91 253.958C500.877 254.474 501.757 255.204 502.509 256.107C503.261 257.01 504.206 258.536 505.323 260.685C507.192 264.382 508.567 266.939 509.469 268.336H502.896C502.445 267.67 501.822 266.595 501.07 265.112C499.373 261.867 498.149 259.675 497.354 258.536C496.559 257.397 495.807 256.601 495.077 256.128C494.347 255.656 493.509 255.419 492.564 255.419H490.416V268.315H484.509V237.774H495.507H495.528ZM494.196 250.82C495.743 250.82 496.946 250.433 497.827 249.659C498.707 248.885 499.158 247.832 499.158 246.478C499.158 245.124 498.729 244.028 497.848 243.34C496.967 242.653 495.721 242.309 494.11 242.309H490.437V250.82H494.196Z" fill="#1D1D1B"/>
  <path d="M541.818 237.774L555.308 268.315H549.079L545.899 260.878H532.324L529.381 268.315H523.195L535.782 237.774H541.818ZM534.128 256.408H543.988L538.832 244.307L534.128 256.408Z" fill="#1D1D1B"/>
  <path d="M577.175 237.774L587.206 249.831L597.237 237.774H602.5V268.315H596.593V246.865H596.421L587.593 257.633H586.755L577.927 246.865H577.755V268.315H571.848V237.774H577.153H577.175Z" fill="#1D1D1B"/>
</svg>